<mxfile host="app.diagrams.net" agent="Mozilla/5.0 (Macintosh; Intel Mac OS X 10_15_7) AppleWebKit/537.36 (KHTML, like Gecko) Chrome/131.0.0.0 Safari/537.36" version="25.0.3">
  <diagram name="第 1 页" id="jlFaa8lIrXFHTDskXryA">
    <mxGraphModel dx="1853" dy="650" grid="1" gridSize="10" guides="1" tooltips="1" connect="1" arrows="1" fold="1" page="1" pageScale="1" pageWidth="827" pageHeight="1169" math="0" shadow="0">
      <root>
        <mxCell id="0" />
        <mxCell id="1" parent="0" />
        <mxCell id="l3lhd-vre_Ck-5Ej6VSp-19" value="" style="group" vertex="1" connectable="0" parent="1">
          <mxGeometry x="280" y="220" width="280" height="120" as="geometry" />
        </mxCell>
        <mxCell id="l3lhd-vre_Ck-5Ej6VSp-14" value="" style="rounded=0;whiteSpace=wrap;html=1;" vertex="1" parent="l3lhd-vre_Ck-5Ej6VSp-19">
          <mxGeometry width="280" height="120" as="geometry" />
        </mxCell>
        <mxCell id="l3lhd-vre_Ck-5Ej6VSp-15" value="详情页（&lt;span style=&quot;font-family: &amp;quot;JetBrains Mono&amp;quot;, monospace; font-size: 9.8pt;&quot;&gt;AssetDetails）&lt;/span&gt;" style="swimlane;fontStyle=0;childLayout=stackLayout;horizontal=1;startSize=30;horizontalStack=0;resizeParent=1;resizeParentMax=0;resizeLast=0;collapsible=1;marginBottom=0;whiteSpace=wrap;html=1;" vertex="1" parent="l3lhd-vre_Ck-5Ej6VSp-19">
          <mxGeometry width="280" height="120" as="geometry" />
        </mxCell>
        <mxCell id="l3lhd-vre_Ck-5Ej6VSp-16" value="&lt;pre style=&quot;text-align: center; font-family: &amp;quot;JetBrains Mono&amp;quot;, monospace; font-size: 9.8pt;&quot;&gt;&lt;span style=&quot;background-color: rgb(255, 255, 255);&quot;&gt;currentOption&lt;/span&gt;&lt;/pre&gt;" style="text;strokeColor=none;fillColor=none;align=left;verticalAlign=middle;spacingLeft=4;spacingRight=4;overflow=hidden;points=[[0,0.5],[1,0.5]];portConstraint=eastwest;rotatable=0;whiteSpace=wrap;html=1;" vertex="1" parent="l3lhd-vre_Ck-5Ej6VSp-15">
          <mxGeometry y="30" width="280" height="30" as="geometry" />
        </mxCell>
        <mxCell id="l3lhd-vre_Ck-5Ej6VSp-17" value="&lt;pre style=&quot;font-size: 9.8pt; text-align: center; font-family: &amp;quot;JetBrains Mono&amp;quot;, monospace;&quot;&gt;&lt;span style=&quot;background-color: rgb(255, 255, 255);&quot;&gt;onClick&lt;/span&gt;&lt;/pre&gt;" style="text;strokeColor=none;fillColor=none;align=left;verticalAlign=middle;spacingLeft=4;spacingRight=4;overflow=hidden;points=[[0,0.5],[1,0.5]];portConstraint=eastwest;rotatable=0;whiteSpace=wrap;html=1;" vertex="1" parent="l3lhd-vre_Ck-5Ej6VSp-15">
          <mxGeometry y="60" width="280" height="30" as="geometry" />
        </mxCell>
        <mxCell id="l3lhd-vre_Ck-5Ej6VSp-18" value="Item 3" style="text;strokeColor=none;fillColor=none;align=left;verticalAlign=middle;spacingLeft=4;spacingRight=4;overflow=hidden;points=[[0,0.5],[1,0.5]];portConstraint=eastwest;rotatable=0;whiteSpace=wrap;html=1;" vertex="1" parent="l3lhd-vre_Ck-5Ej6VSp-15">
          <mxGeometry y="90" width="280" height="30" as="geometry" />
        </mxCell>
        <mxCell id="l3lhd-vre_Ck-5Ej6VSp-20" value="" style="group" vertex="1" connectable="0" parent="1">
          <mxGeometry x="280" y="60" width="280" height="120" as="geometry" />
        </mxCell>
        <mxCell id="l3lhd-vre_Ck-5Ej6VSp-6" value="" style="rounded=0;whiteSpace=wrap;html=1;" vertex="1" parent="l3lhd-vre_Ck-5Ej6VSp-20">
          <mxGeometry width="280" height="120" as="geometry" />
        </mxCell>
        <mxCell id="l3lhd-vre_Ck-5Ej6VSp-10" value="&lt;span style=&quot;background-color: rgb(255, 255, 255);&quot;&gt;饼图（&lt;/span&gt;&lt;span style=&quot;font-family: &amp;quot;JetBrains Mono&amp;quot;, monospace; font-size: 9.8pt;&quot;&gt;AssetDistributionChart）&lt;/span&gt;" style="swimlane;fontStyle=0;childLayout=stackLayout;horizontal=1;startSize=30;horizontalStack=0;resizeParent=1;resizeParentMax=0;resizeLast=0;collapsible=1;marginBottom=0;whiteSpace=wrap;html=1;" vertex="1" parent="l3lhd-vre_Ck-5Ej6VSp-20">
          <mxGeometry width="280" height="120" as="geometry" />
        </mxCell>
        <mxCell id="l3lhd-vre_Ck-5Ej6VSp-11" value="&lt;pre style=&quot;text-align: center; font-family: &amp;quot;JetBrains Mono&amp;quot;, monospace; font-size: 9.8pt;&quot;&gt;&lt;span style=&quot;background-color: rgb(255, 255, 255);&quot;&gt;currentOption：当前选中查看的钱包类型&lt;/span&gt;&lt;/pre&gt;" style="text;strokeColor=none;fillColor=none;align=left;verticalAlign=middle;spacingLeft=4;spacingRight=4;overflow=hidden;points=[[0,0.5],[1,0.5]];portConstraint=eastwest;rotatable=0;whiteSpace=wrap;html=1;" vertex="1" parent="l3lhd-vre_Ck-5Ej6VSp-10">
          <mxGeometry y="30" width="280" height="30" as="geometry" />
        </mxCell>
        <mxCell id="l3lhd-vre_Ck-5Ej6VSp-12" value="&lt;pre style=&quot;font-size: 9.8pt; text-align: center; font-family: &amp;quot;JetBrains Mono&amp;quot;, monospace;&quot;&gt;&lt;span style=&quot;background-color: rgb(255, 255, 255);&quot;&gt;onClick：点击切换菜单时返回给父组件的&lt;/span&gt;&lt;/pre&gt;" style="text;strokeColor=none;fillColor=none;align=left;verticalAlign=middle;spacingLeft=4;spacingRight=4;overflow=hidden;points=[[0,0.5],[1,0.5]];portConstraint=eastwest;rotatable=0;whiteSpace=wrap;html=1;" vertex="1" parent="l3lhd-vre_Ck-5Ej6VSp-10">
          <mxGeometry y="60" width="280" height="30" as="geometry" />
        </mxCell>
        <mxCell id="l3lhd-vre_Ck-5Ej6VSp-13" value="Item 3" style="text;strokeColor=none;fillColor=none;align=left;verticalAlign=middle;spacingLeft=4;spacingRight=4;overflow=hidden;points=[[0,0.5],[1,0.5]];portConstraint=eastwest;rotatable=0;whiteSpace=wrap;html=1;" vertex="1" parent="l3lhd-vre_Ck-5Ej6VSp-10">
          <mxGeometry y="90" width="280" height="30" as="geometry" />
        </mxCell>
        <mxCell id="l3lhd-vre_Ck-5Ej6VSp-21" value="" style="group" vertex="1" connectable="0" parent="1">
          <mxGeometry x="-140" y="130" width="280" height="120" as="geometry" />
        </mxCell>
        <mxCell id="l3lhd-vre_Ck-5Ej6VSp-22" value="" style="rounded=0;whiteSpace=wrap;html=1;" vertex="1" parent="l3lhd-vre_Ck-5Ej6VSp-21">
          <mxGeometry width="280" height="120" as="geometry" />
        </mxCell>
        <mxCell id="l3lhd-vre_Ck-5Ej6VSp-23" value="入口（index）" style="swimlane;fontStyle=0;childLayout=stackLayout;horizontal=1;startSize=30;horizontalStack=0;resizeParent=1;resizeParentMax=0;resizeLast=0;collapsible=1;marginBottom=0;whiteSpace=wrap;html=1;" vertex="1" parent="l3lhd-vre_Ck-5Ej6VSp-21">
          <mxGeometry width="280" height="120" as="geometry" />
        </mxCell>
        <mxCell id="l3lhd-vre_Ck-5Ej6VSp-24" value="&lt;pre style=&quot;text-align: center; font-family: &amp;quot;JetBrains Mono&amp;quot;, monospace; font-size: 9.8pt;&quot;&gt;&lt;span style=&quot;background-color: rgb(255, 255, 255);&quot;&gt;currentOption&lt;/span&gt;&lt;/pre&gt;" style="text;strokeColor=none;fillColor=none;align=left;verticalAlign=middle;spacingLeft=4;spacingRight=4;overflow=hidden;points=[[0,0.5],[1,0.5]];portConstraint=eastwest;rotatable=0;whiteSpace=wrap;html=1;" vertex="1" parent="l3lhd-vre_Ck-5Ej6VSp-23">
          <mxGeometry y="30" width="280" height="30" as="geometry" />
        </mxCell>
        <mxCell id="l3lhd-vre_Ck-5Ej6VSp-25" value="&lt;pre style=&quot;font-size: 9.8pt; text-align: center; font-family: &amp;quot;JetBrains Mono&amp;quot;, monospace;&quot;&gt;&lt;span style=&quot;background-color: rgb(255, 255, 255);&quot;&gt;onClick&lt;/span&gt;&lt;/pre&gt;" style="text;strokeColor=none;fillColor=none;align=left;verticalAlign=middle;spacingLeft=4;spacingRight=4;overflow=hidden;points=[[0,0.5],[1,0.5]];portConstraint=eastwest;rotatable=0;whiteSpace=wrap;html=1;" vertex="1" parent="l3lhd-vre_Ck-5Ej6VSp-23">
          <mxGeometry y="60" width="280" height="30" as="geometry" />
        </mxCell>
        <mxCell id="l3lhd-vre_Ck-5Ej6VSp-26" value="Item 3" style="text;strokeColor=none;fillColor=none;align=left;verticalAlign=middle;spacingLeft=4;spacingRight=4;overflow=hidden;points=[[0,0.5],[1,0.5]];portConstraint=eastwest;rotatable=0;whiteSpace=wrap;html=1;" vertex="1" parent="l3lhd-vre_Ck-5Ej6VSp-23">
          <mxGeometry y="90" width="280" height="30" as="geometry" />
        </mxCell>
      </root>
    </mxGraphModel>
  </diagram>
</mxfile>
